<?xml version="1.0" encoding="UTF-8"?><svg id="a" xmlns="http://www.w3.org/2000/svg" width="28" height="35" viewBox="0 0 28 35"><g id="b"><path d="m3,0h14.7l10,10.4.2,21.6c0,1.7-1.3,3-3,3H3c-1.7,0-3-1.3-3-3V3C0,1.3,1.3,0,3,0Z" style="fill:none; stroke-width:0px;"/><path d="m3,1.4c-.9,0-1.6.7-1.6,1.6v29c0,.9.7,1.6,1.6,1.6h22c.9,0,1.6-.7,1.6-1.6l-.2-21.1L17.1,1.4H3M3,0h14.7l10,10.4.2,21.6c0,1.7-1.3,3-3,3H3c-1.7,0-3-1.3-3-3V3C0,1.3,1.3,0,3,0Z" style="fill:#00469b; stroke-width:0px;"/></g><g id="c"><rect x="4" y="5" width="8" height="6" rx="1" ry="1" style="fill:none; stroke-width:0px;"/><rect x="4.6" y="5.6" width="6.8" height="4.8" rx=".4" ry=".4" style="fill:none; stroke:#00469b; stroke-width:1.2px;"/></g><g id="d"><rect x="4" y="15" width="8" height="14" rx="1" ry="1" style="fill:none; stroke-width:0px;"/><rect x="4.6" y="15.6" width="6.8" height="12.8" rx=".4" ry=".4" style="fill:none; stroke:#00469b; stroke-width:1.2px;"/></g><g id="e"><rect x="16" y="15" width="8" height="14" rx="1" ry="1" style="fill:none; stroke-width:0px;"/><rect x="16.6" y="15.6" width="6.8" height="12.8" rx=".4" ry=".4" style="fill:none; stroke:#00469b; stroke-width:1.2px;"/></g><path id="f" d="m27.2,11h-8.4c-1.1,0-2-.9-2-2V.5l10.4,10.5Z" style="fill:#00469b; stroke-width:0px;"/></svg>